<svg width="1920" height="1080" viewBox="0 0 1920 1080" fill="none" xmlns="http://www.w3.org/2000/svg">
<rect width="1920" height="1080" fill="url(#paint0_linear_6_97)"/>
<g opacity="0.489514">
<g opacity="0.489514" filter="url(#filter0_f_6_97)">
<path opacity="0.27839" fill-rule="evenodd" clip-rule="evenodd" d="M878.227 775.108C910.336 793.931 910.336 824.457 878.227 843.281L322.405 1169.15C290.292 1187.98 238.235 1187.98 206.119 1169.15L-406.663 813.174C-438.775 794.351 -438.775 763.828 -406.663 744.998L149.156 419.13C181.269 400.303 233.329 400.3 265.442 419.13L878.227 775.108Z" stroke="#A5BEFF" stroke-dasharray="8 8"/>
<path opacity="0.1" fill-rule="evenodd" clip-rule="evenodd" d="M1604.77 744.558C1671.68 783.782 1671.68 847.392 1604.77 886.615L446.413 1565.66C379.489 1604.89 271.001 1604.89 204.07 1565.66L-1072.99 823.879C-1139.91 784.656 -1139.91 721.053 -1072.99 681.815L85.3575 2.77388C152.281 -36.4567 260.777 -36.4639 327.7 2.77388L1604.77 744.558Z" fill="#F1F2F9"/>
<g opacity="0.1684" filter="url(#filter1_f_6_97)">
<path fill-rule="evenodd" clip-rule="evenodd" d="M1072.48 773.606C1114.3 798.121 1114.3 837.877 1072.48 862.392L348.597 1286.8C306.774 1311.32 238.977 1311.32 197.15 1286.8L-600.917 823.182C-642.74 798.667 -642.74 758.915 -600.917 734.392L122.963 309.991C164.786 285.472 232.588 285.468 274.41 309.991L1072.48 773.606Z" fill="#F1F2F9"/>
</g>
</g>
</g>
<g opacity="0.275112" filter="url(#filter2_f_6_97)">
<path opacity="0.27839" fill-rule="evenodd" clip-rule="evenodd" d="M829.475 861.901C849.104 873.387 849.104 892.014 829.475 903.5L489.676 1102.35C470.044 1113.83 438.219 1113.83 418.585 1102.35L43.9645 885.128C24.3326 873.643 24.3326 855.018 43.9645 843.528L383.761 644.683C403.393 633.195 435.22 633.192 454.852 644.683L829.475 861.901Z" stroke="#A5BEFF" stroke-dasharray="8 8"/>
<path opacity="0.12" fill-rule="evenodd" clip-rule="evenodd" d="M829.475 791.021C849.104 802.507 849.104 821.134 829.475 832.619L489.676 1031.47C470.044 1042.95 438.219 1042.95 418.585 1031.47L43.9643 814.248C24.3325 802.762 24.3325 784.138 43.9643 772.647L383.761 573.802C403.393 562.314 435.22 562.312 454.852 573.802L829.475 791.021Z" fill="#F1F2F9"/>
</g>
<g opacity="0.6">
<path opacity="0.3384" fill-rule="evenodd" clip-rule="evenodd" d="M367.386 946.957C387.016 958.443 387.016 977.07 367.386 988.556L27.5871 1187.4C7.95531 1198.89 -23.8695 1198.89 -43.5034 1187.4L-418.124 970.185C-437.756 958.699 -437.756 940.074 -418.124 928.584L-78.3274 729.739C-58.6956 718.251 -26.8686 718.249 -7.23684 729.739L367.386 946.957Z" stroke="#A5BEFF" stroke-dasharray="8 8"/>
<path opacity="0.17" fill-rule="evenodd" clip-rule="evenodd" d="M367.386 876.077C387.016 887.563 387.016 906.19 367.386 917.676L27.5871 1116.52C7.95526 1128.01 -23.8696 1128.01 -43.5035 1116.52L-418.124 899.305C-437.756 887.819 -437.756 869.194 -418.124 857.704L-78.3274 658.859C-58.6956 647.371 -26.8687 647.369 -7.23691 658.859L367.386 876.077Z" fill="#F1F2F9"/>
</g>
<g opacity="0.6">
<path opacity="0.3384" fill-rule="evenodd" clip-rule="evenodd" d="M1629.17 849.991C1636.5 854.276 1636.5 861.224 1629.17 865.509L1502.42 939.684C1495.1 943.969 1483.23 943.969 1475.9 939.684L1336.16 858.656C1328.84 854.371 1328.84 847.424 1336.16 843.138L1462.91 768.963C1470.24 764.678 1482.11 764.677 1489.43 768.963L1629.17 849.991Z" stroke="#A5BEFF" stroke-dasharray="8 8"/>
</g>
<path opacity="0.5144" fill-rule="evenodd" clip-rule="evenodd" d="M643.213 54.6733C689.016 81.4851 689.016 124.967 643.213 151.779L-149.651 615.953C-195.459 642.77 -269.717 642.77 -315.529 615.953L-1189.64 108.894C-1235.45 82.0826 -1235.45 38.6058 -1189.64 11.7842L-396.785 -452.386C-350.977 -479.202 -276.715 -479.207 -230.907 -452.386L643.213 54.6733Z" stroke="#A5BEFF" stroke-width="4" stroke-dasharray="8 8"/>
<path opacity="0.5144" fill-rule="evenodd" clip-rule="evenodd" d="M2895.21 1347.97C2941.02 1374.79 2941.02 1418.27 2895.21 1445.08L2102.35 1909.25C2056.54 1936.07 1982.28 1936.07 1936.47 1909.25L1062.36 1402.19C1016.55 1375.38 1016.55 1331.91 1062.36 1305.08L1855.22 840.914C1901.02 814.098 1975.29 814.093 2021.09 840.914L2895.21 1347.97Z" stroke="#A5BEFF" stroke-width="4" stroke-dasharray="8 8"/>
<g opacity="0.27839">
<g opacity="0.27839">
<path opacity="0.27839" fill-rule="evenodd" clip-rule="evenodd" d="M2144.53 240.07C2155.76 246.619 2155.76 257.239 2144.53 263.788L1950.11 377.16C1938.88 383.71 1920.67 383.71 1909.44 377.16L1695.09 253.313C1683.86 246.765 1683.86 236.146 1695.09 229.595L1889.51 116.223C1900.74 109.673 1918.95 109.672 1930.19 116.223L2144.53 240.07Z" stroke="#A5BEFF" stroke-dasharray="8 8"/>
<path opacity="0.27839" fill-rule="evenodd" clip-rule="evenodd" d="M2144.53 198.96C2155.76 205.508 2155.76 216.129 2144.53 222.677L1950.11 336.05C1938.88 342.6 1920.67 342.6 1909.44 336.05L1695.09 212.203C1683.86 205.654 1683.86 195.035 1695.09 188.484L1889.51 75.1128C1900.74 68.5629 1918.95 68.5617 1930.19 75.1128L2144.53 198.96Z" fill="#F1F2F9"/>
</g>
</g>
<g opacity="0.27839">
<g opacity="0.27839">
<path opacity="0.27839" fill-rule="evenodd" clip-rule="evenodd" d="M2144.53 240.07C2155.76 246.619 2155.76 257.239 2144.53 263.788L1950.11 377.16C1938.88 383.71 1920.67 383.71 1909.44 377.16L1695.09 253.313C1683.86 246.765 1683.86 236.146 1695.09 229.595L1889.51 116.223C1900.74 109.673 1918.95 109.672 1930.19 116.223L2144.53 240.07Z" stroke="#A5BEFF" stroke-dasharray="8 8"/>
<path opacity="0.27839" fill-rule="evenodd" clip-rule="evenodd" d="M2144.53 198.96C2155.76 205.508 2155.76 216.129 2144.53 222.677L1950.11 336.05C1938.88 342.6 1920.67 342.6 1909.44 336.05L1695.09 212.203C1683.86 205.654 1683.86 195.035 1695.09 188.484L1889.51 75.1128C1900.74 68.5629 1918.95 68.5617 1930.19 75.1128L2144.53 198.96Z" fill="#F1F2F9"/>
</g>
</g>
<g opacity="0.27839">
<g opacity="0.27839">
<path opacity="0.27839" fill-rule="evenodd" clip-rule="evenodd" d="M2144.53 240.07C2155.76 246.619 2155.76 257.239 2144.53 263.788L1950.11 377.16C1938.88 383.71 1920.67 383.71 1909.44 377.16L1695.09 253.313C1683.86 246.765 1683.86 236.146 1695.09 229.595L1889.51 116.223C1900.74 109.673 1918.95 109.672 1930.19 116.223L2144.53 240.07Z" stroke="#A5BEFF" stroke-dasharray="8 8"/>
<path opacity="0.27839" fill-rule="evenodd" clip-rule="evenodd" d="M2144.53 198.96C2155.76 205.508 2155.76 216.129 2144.53 222.677L1950.11 336.05C1938.88 342.6 1920.67 342.6 1909.44 336.05L1695.09 212.203C1683.86 205.654 1683.86 195.035 1695.09 188.484L1889.51 75.1128C1900.74 68.5629 1918.95 68.5617 1930.19 75.1128L2144.53 198.96Z" fill="#F1F2F9"/>
</g>
</g>
<g opacity="0.27839">
<g opacity="0.27839">
<path opacity="0.27839" fill-rule="evenodd" clip-rule="evenodd" d="M2144.53 240.07C2155.76 246.619 2155.76 257.239 2144.53 263.788L1950.11 377.16C1938.88 383.71 1920.67 383.71 1909.44 377.16L1695.09 253.313C1683.86 246.765 1683.86 236.146 1695.09 229.595L1889.51 116.223C1900.74 109.673 1918.95 109.672 1930.19 116.223L2144.53 240.07Z" stroke="#A5BEFF" stroke-dasharray="8 8"/>
<path opacity="0.27839" fill-rule="evenodd" clip-rule="evenodd" d="M2144.53 198.96C2155.76 205.508 2155.76 216.129 2144.53 222.677L1950.11 336.05C1938.88 342.6 1920.67 342.6 1909.44 336.05L1695.09 212.203C1683.86 205.654 1683.86 195.035 1695.09 188.484L1889.51 75.1128C1900.74 68.5629 1918.95 68.5617 1930.19 75.1128L2144.53 198.96Z" fill="#F1F2F9"/>
</g>
</g>
<g opacity="0.27839">
<g opacity="0.27839">
<path opacity="0.27839" fill-rule="evenodd" clip-rule="evenodd" d="M2310.58 377.205C2328.47 387.635 2328.47 404.55 2310.58 414.98L2000.93 595.55C1983.04 605.982 1954.03 605.982 1936.14 595.55L1594.75 398.298C1576.86 387.867 1576.86 370.954 1594.75 360.52L1904.41 179.952C1922.3 169.52 1951.3 169.518 1969.19 179.952L2310.58 377.205Z" stroke="#A5BEFF" stroke-dasharray="8 8"/>
<path opacity="0.27839" fill-rule="evenodd" clip-rule="evenodd" d="M2310.58 311.727C2328.47 322.158 2328.47 339.073 2310.58 349.503L2000.93 530.073C1983.04 540.505 1954.03 540.505 1936.14 530.073L1594.75 332.82C1576.86 322.39 1576.86 305.477 1594.75 295.043L1904.41 114.475C1922.3 104.043 1951.3 104.041 1969.19 114.475L2310.58 311.727Z" fill="#F1F2F9"/>
</g>
</g>
<g opacity="0.27839" filter="url(#filter3_f_6_97)">
<g opacity="0.27839">
<path opacity="0.27839" fill-rule="evenodd" clip-rule="evenodd" d="M2310.58 377.205C2328.47 387.635 2328.47 404.55 2310.58 414.98L2000.93 595.55C1983.04 605.982 1954.03 605.982 1936.14 595.55L1594.75 398.298C1576.86 387.867 1576.86 370.954 1594.75 360.52L1904.41 179.952C1922.3 169.52 1951.3 169.518 1969.19 179.952L2310.58 377.205Z" stroke="#A5BEFF" stroke-dasharray="8 8"/>
<path opacity="0.27839" fill-rule="evenodd" clip-rule="evenodd" d="M2310.58 311.727C2328.47 322.158 2328.47 339.073 2310.58 349.503L2000.93 530.073C1983.04 540.505 1954.03 540.505 1936.14 530.073L1594.75 332.82C1576.86 322.39 1576.86 305.477 1594.75 295.043L1904.41 114.475C1922.3 104.043 1951.3 104.041 1969.19 114.475L2310.58 311.727Z" fill="#F1F2F9"/>
</g>
</g>
<defs>
<filter id="filter0_f_6_97" x="-1131.18" y="-34.6517" width="2794.13" height="1637.74" filterUnits="userSpaceOnUse" color-interpolation-filters="sRGB">
<feFlood flood-opacity="0" result="BackgroundImageFix"/>
<feBlend mode="normal" in="SourceGraphic" in2="BackgroundImageFix" result="shape"/>
<feGaussianBlur stdDeviation="4" result="effect1_foregroundBlur_6_97"/>
</filter>
<filter id="filter1_f_6_97" x="-648.284" y="275.6" width="1768.13" height="1045.59" filterUnits="userSpaceOnUse" color-interpolation-filters="sRGB">
<feFlood flood-opacity="0" result="BackgroundImageFix"/>
<feBlend mode="normal" in="SourceGraphic" in2="BackgroundImageFix" result="shape"/>
<feGaussianBlur stdDeviation="8" result="effect1_foregroundBlur_6_97"/>
</filter>
<filter id="filter2_f_6_97" x="25.2405" y="561.186" width="822.956" height="554.198" filterUnits="userSpaceOnUse" color-interpolation-filters="sRGB">
<feFlood flood-opacity="0" result="BackgroundImageFix"/>
<feBlend mode="normal" in="SourceGraphic" in2="BackgroundImageFix" result="shape"/>
<feGaussianBlur stdDeviation="2" result="effect1_foregroundBlur_6_97"/>
</filter>
<filter id="filter3_f_6_97" x="1573.33" y="98.65" width="758.666" height="513.224" filterUnits="userSpaceOnUse" color-interpolation-filters="sRGB">
<feFlood flood-opacity="0" result="BackgroundImageFix"/>
<feBlend mode="normal" in="SourceGraphic" in2="BackgroundImageFix" result="shape"/>
<feGaussianBlur stdDeviation="4" result="effect1_foregroundBlur_6_97"/>
</filter>
<linearGradient id="paint0_linear_6_97" x1="1772.31" y1="2033.81" x2="920.101" y2="-123.741" gradientUnits="userSpaceOnUse">
<stop stop-color="#8F8DE7" stop-opacity="0.5"/>
<stop offset="1" stop-color="#292B34"/>
</linearGradient>
</defs>
</svg>
